<svg width="1400" height="360" viewBox="0 0 1400 360" fill="none" xmlns="http://www.w3.org/2000/svg" role="img" aria-label="CognOS logo">
  <defs>
    <linearGradient id="bg" x1="0" y1="0" x2="1" y2="1">
      <stop offset="0%" stop-color="#0B1220"/>
      <stop offset="100%" stop-color="#121A2A"/>
    </linearGradient>
    <linearGradient id="brand" x1="120" y1="40" x2="290" y2="270">
      <stop offset="0%" stop-color="#34D399"/>
      <stop offset="45%" stop-color="#2DD4BF"/>
      <stop offset="100%" stop-color="#60A5FA"/>
    </linearGradient>
    <linearGradient id="glow" x1="115" y1="55" x2="285" y2="280">
      <stop offset="0%" stop-color="#34D399" stop-opacity="0.35"/>
      <stop offset="100%" stop-color="#60A5FA" stop-opacity="0.35"/>
    </linearGradient>
    <filter id="soft" x="0" y="0" width="380" height="360" filterUnits="userSpaceOnUse" color-interpolation-filters="sRGB">
      <feGaussianBlur stdDeviation="16"/>
    </filter>
  </defs>

  <rect width="1400" height="360" rx="24" fill="url(#bg)"/>

  <g transform="translate(40 20)">
    <g filter="url(#soft)">
      <circle cx="170" cy="160" r="92" fill="url(#glow)"/>
    </g>

    <path d="M170 28L284 94V226L170 292L56 226V94L170 28Z" fill="#0F172A" stroke="url(#brand)" stroke-width="8"/>

    <circle cx="170" cy="160" r="50" fill="#0B1220" stroke="#67E8F9" stroke-width="5"/>
    <circle cx="170" cy="160" r="16" fill="url(#brand)"/>

    <path d="M170 66V110" stroke="#67E8F9" stroke-width="4" stroke-linecap="round"/>
    <path d="M256 116L218 138" stroke="#67E8F9" stroke-width="4" stroke-linecap="round"/>
    <path d="M256 204L218 182" stroke="#67E8F9" stroke-width="4" stroke-linecap="round"/>
    <path d="M170 254V210" stroke="#67E8F9" stroke-width="4" stroke-linecap="round"/>
    <path d="M84 204L122 182" stroke="#67E8F9" stroke-width="4" stroke-linecap="round"/>
    <path d="M84 116L122 138" stroke="#67E8F9" stroke-width="4" stroke-linecap="round"/>

    <circle cx="170" cy="66" r="7" fill="#A7F3D0"/>
    <circle cx="256" cy="116" r="7" fill="#A7F3D0"/>
    <circle cx="256" cy="204" r="7" fill="#A7F3D0"/>
    <circle cx="170" cy="254" r="7" fill="#A7F3D0"/>
    <circle cx="84" cy="204" r="7" fill="#A7F3D0"/>
    <circle cx="84" cy="116" r="7" fill="#A7F3D0"/>
  </g>

  <g transform="translate(360 0)">
    <text x="0" y="175" fill="#E5E7EB" font-family="Inter, Segoe UI, Roboto, Arial, sans-serif" font-size="104" font-weight="800" letter-spacing="-2">
      CognOS
    </text>
    <text x="4" y="225" fill="#93C5FD" font-family="Inter, Segoe UI, Roboto, Arial, sans-serif" font-size="34" font-weight="600" letter-spacing="0.2">
      Trust Infrastructure for AI
    </text>
    <rect x="0" y="246" width="650" height="2" fill="#1F2937"/>
    <text x="4" y="286" fill="#9CA3AF" font-family="Inter, Segoe UI, Roboto, Arial, sans-serif" font-size="24" font-weight="500">
      Verify uncertainty • detect drift • enforce policy • produce trust reports
    </text>
  </g>
</svg>
