<svg width="512" height="512" viewBox="0 0 512 512" fill="none" xmlns="http://www.w3.org/2000/svg" role="img" aria-label="CognOS mark">
  <defs>
    <linearGradient id="bg" x1="0" y1="0" x2="1" y2="1">
      <stop offset="0%" stop-color="#0B1220"/>
      <stop offset="100%" stop-color="#121A2A"/>
    </linearGradient>
    <linearGradient id="brand" x1="140" y1="80" x2="390" y2="430">
      <stop offset="0%" stop-color="#34D399"/>
      <stop offset="45%" stop-color="#2DD4BF"/>
      <stop offset="100%" stop-color="#60A5FA"/>
    </linearGradient>
  </defs>

  <rect width="512" height="512" rx="96" fill="url(#bg)"/>
  <path d="M256 74L390 151V361L256 438L122 361V151L256 74Z" fill="#0F172A" stroke="url(#brand)" stroke-width="14"/>

  <circle cx="256" cy="256" r="78" fill="#0B1220" stroke="#67E8F9" stroke-width="8"/>
  <circle cx="256" cy="256" r="24" fill="url(#brand)"/>

  <path d="M256 108V170" stroke="#67E8F9" stroke-width="7" stroke-linecap="round"/>
  <path d="M352 164L298 195" stroke="#67E8F9" stroke-width="7" stroke-linecap="round"/>
  <path d="M352 348L298 317" stroke="#67E8F9" stroke-width="7" stroke-linecap="round"/>
  <path d="M256 404V342" stroke="#67E8F9" stroke-width="7" stroke-linecap="round"/>
  <path d="M160 348L214 317" stroke="#67E8F9" stroke-width="7" stroke-linecap="round"/>
  <path d="M160 164L214 195" stroke="#67E8F9" stroke-width="7" stroke-linecap="round"/>

  <circle cx="256" cy="108" r="11" fill="#A7F3D0"/>
  <circle cx="352" cy="164" r="11" fill="#A7F3D0"/>
  <circle cx="352" cy="348" r="11" fill="#A7F3D0"/>
  <circle cx="256" cy="404" r="11" fill="#A7F3D0"/>
  <circle cx="160" cy="348" r="11" fill="#A7F3D0"/>
  <circle cx="160" cy="164" r="11" fill="#A7F3D0"/>
</svg>
